<svg width="35" height="42" viewBox="0 0 35 42" fill="none" xmlns="http://www.w3.org/2000/svg">
<path d="M3.6155 42C2.61817 42 1.76617 41.6468 1.0595 40.9405C0.353167 40.2338 0 39.3818 0 38.3845V3.6155C0 2.61817 0.353167 1.76617 1.0595 1.0595C1.76617 0.353167 2.61817 0 3.6155 0H22.3845C23.3818 0 24.2338 0.353167 24.9405 1.0595C25.6468 1.76617 26 2.61817 26 3.6155V10.923H23V8.5H3V33.5H23V31.077H26V38.3845C26 39.3818 25.6468 40.2338 24.9405 40.9405C24.2338 41.6468 23.3818 42 22.3845 42H3.6155ZM3 36.5V38.3845C3 38.5385 3.06417 38.6795 3.1925 38.8075C3.3205 38.9358 3.4615 39 3.6155 39H22.3845C22.5385 39 22.6795 38.9358 22.8075 38.8075C22.9358 38.6795 23 38.5385 23 38.3845V36.5H3ZM20.9 28.3075L13.0925 20.5L15.2 18.3925L20.9 24.0925L32.2385 12.754L34.346 14.8615L20.9 28.3075ZM3 5.5H23V3.6155C23 3.4615 22.9358 3.3205 22.8075 3.1925C22.6795 3.06417 22.5385 3 22.3845 3H3.6155C3.4615 3 3.3205 3.06417 3.1925 3.1925C3.06417 3.3205 3 3.4615 3 3.6155V5.5Z" fill="#8B9CC0"/>
</svg>
