<svg width="34" height="39" viewBox="0 0 34 39" fill="none" xmlns="http://www.w3.org/2000/svg">
<path d="M14.9 31.1995L8.4925 24.792L10.6615 22.623L14.9 26.8615L23.3385 18.423L25.5075 20.592L14.9 31.1995ZM3.6155 38.2305C2.60517 38.2305 1.75 37.8805 1.05 37.1805C0.35 36.4805 0 35.6253 0 34.615V7.846C0 6.83567 0.35 5.9805 1.05 5.2805C1.75 4.5805 2.60517 4.2305 3.6155 4.2305H6.3845V0H9.4615V4.2305H24.6155V0H27.6155V4.2305H30.3845C31.3948 4.2305 32.25 4.5805 32.95 5.2805C33.65 5.9805 34 6.83567 34 7.846V34.615C34 35.6253 33.65 36.4805 32.95 37.1805C32.25 37.8805 31.3948 38.2305 30.3845 38.2305H3.6155ZM3.6155 35.2305H30.3845C30.5385 35.2305 30.6795 35.1663 30.8075 35.038C30.9358 34.91 31 34.769 31 34.615V15.846H3V34.615C3 34.769 3.06417 34.91 3.1925 35.038C3.3205 35.1663 3.4615 35.2305 3.6155 35.2305ZM3 12.846H31V7.846C31 7.692 30.9358 7.551 30.8075 7.423C30.6795 7.29466 30.5385 7.2305 30.3845 7.2305H3.6155C3.4615 7.2305 3.3205 7.29466 3.1925 7.423C3.06417 7.551 3 7.692 3 7.846V12.846Z" fill="#8B9CC0"/>
</svg>
