<svg width="60" height="60" viewBox="0 0 60 60" fill="none" xmlns="http://www.w3.org/2000/svg">
<path d="M47.9806 51.9231L30.0962 34.0381L23.2594 40.875C23.6089 41.5 23.8581 42.1627 24.0069 42.8631C24.156 43.5635 24.2306 44.2758 24.2306 45C24.2306 47.5121 23.3364 49.6625 21.5481 51.4512C19.7598 53.24 17.61 54.1344 15.0987 54.1344C12.5875 54.1344 10.4369 53.2402 8.64685 51.4519C6.85685 49.6635 5.96185 47.5137 5.96185 45.0025C5.96185 42.4912 6.85623 40.3406 8.64498 38.5506C10.4337 36.7606 12.5841 35.8656 15.0962 35.8656C15.8204 35.8656 16.5327 35.94 17.2331 36.0887C17.9335 36.2379 18.5962 36.4873 19.2212 36.8369L26.0575 30L19.2212 23.1631C18.5962 23.5127 17.9335 23.7621 17.2331 23.9112C16.5327 24.06 15.8204 24.1344 15.0962 24.1344C12.5841 24.1344 10.4337 23.2402 8.64498 21.4519C6.85623 19.6635 5.96185 17.5137 5.96185 15.0025C5.96185 12.4912 6.85602 10.3406 8.64435 8.5506C10.4327 6.7606 12.5825 5.8656 15.0937 5.8656C17.605 5.8656 19.7556 6.75998 21.5456 8.54873C23.3356 10.3375 24.2306 12.4879 24.2306 15C24.2306 15.7241 24.156 16.4364 24.0069 17.1369C23.8581 17.8373 23.6089 18.5 23.2594 19.125L54.0381 49.9037V51.9231H47.9806ZM37.0194 27.1156L32.9806 23.0769L47.9806 8.07685H54.0381V10.0962L37.0194 27.1156ZM15.0962 20.3844C16.5771 20.3844 17.8448 19.8573 18.8994 18.8031C19.9535 17.7485 20.4806 16.4808 20.4806 15C20.4806 13.5191 19.9535 12.2514 18.8994 11.1969C17.8448 10.1427 16.5771 9.6156 15.0962 9.6156C13.6154 9.6156 12.3477 10.1427 11.2931 11.1969C10.2385 12.2514 9.71123 13.5191 9.71123 15C9.71123 16.4808 10.2385 17.7485 11.2931 18.8031C12.3477 19.8573 13.6154 20.3844 15.0962 20.3844ZM30.0962 30.625C30.2629 30.625 30.4087 30.5625 30.5337 30.4375C30.6587 30.3125 30.7212 30.1666 30.7212 30C30.7212 29.8333 30.6587 29.6875 30.5337 29.5625C30.4087 29.4375 30.2629 29.375 30.0962 29.375C29.9296 29.375 29.7837 29.4375 29.6587 29.5625C29.5337 29.6875 29.4712 29.8333 29.4712 30C29.4712 30.1666 29.5337 30.3125 29.6587 30.4375C29.7837 30.5625 29.9296 30.625 30.0962 30.625ZM15.0962 50.3844C16.5771 50.3844 17.8448 49.8573 18.8994 48.8031C19.9535 47.7485 20.4806 46.4808 20.4806 45C20.4806 43.5191 19.9535 42.2514 18.8994 41.1969C17.8448 40.1427 16.5771 39.6156 15.0962 39.6156C13.6154 39.6156 12.3477 40.1427 11.2931 41.1969C10.2385 42.2514 9.71123 43.5191 9.71123 45C9.71123 46.4808 10.2385 47.7485 11.2931 48.8031C12.3477 49.8573 13.6154 50.3844 15.0962 50.3844Z" fill="#8B9CC0"/>
</svg>
