<svg width="70" height="70" viewBox="0 0 70 70" fill="none" xmlns="http://www.w3.org/2000/svg">
<path d="M7.62854 28.9143C7.62854 24.6142 8.5417 20.6449 10.368 17.0063C12.1948 13.3683 14.6601 10.2965 17.764 7.7911L20.4611 11.1956C17.8624 13.297 15.803 15.8734 14.2829 18.9248C12.7633 21.9761 12.0035 25.3059 12.0035 28.9143H7.62854ZM57.9965 28.9143C57.9965 25.3059 57.2367 21.9715 55.7171 18.9109C54.197 15.8503 52.1376 13.2691 49.5389 11.1671L52.236 7.7911C55.3399 10.2965 57.8052 13.3683 59.632 17.0063C61.4583 20.6449 62.3715 24.6142 62.3715 28.9143H57.9965ZM13.125 55.0798V50.7055H18.3976V28.942C18.3976 25.0196 19.6083 21.5515 22.0296 18.5376C24.4504 15.5237 27.5586 13.596 31.3542 12.7545V10.9375C31.3542 9.92781 31.7095 9.06788 32.4202 8.35767C33.1304 7.64697 33.9903 7.29163 35 7.29163C36.0097 7.29163 36.8696 7.64697 37.5798 8.35767C38.2905 9.06788 38.6458 9.92781 38.6458 10.9375V12.7545C42.4414 13.596 45.5496 15.5237 47.9704 18.5376C50.3917 21.5515 51.6024 25.0196 51.6024 28.942V50.7055H56.875V55.0798H13.125ZM35 63.269C33.5456 63.269 32.3033 62.754 31.2732 61.7239C30.2427 60.6939 29.7274 59.4514 29.7274 57.9964H40.2726C40.2726 59.4514 39.7573 60.6939 38.7268 61.7239C37.6967 62.754 36.4544 63.269 35 63.269ZM22.7726 50.7055H47.2274V28.942C47.2274 25.5655 46.0337 22.6836 43.6465 20.2963C41.2587 17.9085 38.3765 16.7146 35 16.7146C31.6235 16.7146 28.7413 17.9085 26.3535 20.2963C23.9662 22.6836 22.7726 25.5655 22.7726 28.942V50.7055Z" fill="#8B9CC0"/>
</svg>
