<svg width="49" height="32" viewBox="0 0 49 32" fill="none" xmlns="http://www.w3.org/2000/svg">
<path d="M27.5735 21.3765C27.5735 19.2605 27.8088 16.9717 28.2794 14.5101C28.75 12.0054 29.4559 9.69501 30.3971 7.57895C31.381 5.4197 32.6003 3.62753 34.0548 2.20243C35.5094 0.734143 37.242 0 39.2527 0C39.9799 0 40.6644 0.259109 41.3061 0.777328C41.9906 1.29555 42.3329 2.11606 42.3329 3.23887V3.75708C42.2901 4.23212 42.1618 4.68556 41.9479 5.11741C41.734 5.54926 41.4987 5.98111 41.242 6.41296C40.9853 6.8448 40.75 7.29825 40.5361 7.77328C40.365 8.20513 40.2794 8.63698 40.2794 9.06883C40.2794 9.54386 40.4933 9.93252 40.9211 10.2348C41.3489 10.5371 41.8623 10.861 42.4612 11.2065C43.1029 11.552 43.7874 11.9622 44.5147 12.4372C45.242 12.8691 45.9051 13.4737 46.504 14.251C47.1457 14.9852 47.6805 15.9352 48.1083 17.1012C48.5361 18.224 48.75 19.6491 48.75 21.3765C48.75 25.0904 47.8302 27.7895 45.9906 29.4737C44.1511 31.1579 41.5201 32 38.0976 32C34.5468 32 31.8944 31.1579 30.1404 29.4737C28.4291 27.7895 27.5735 25.0904 27.5735 21.3765ZM0.75 21.3765C0.75 19.2605 0.985294 16.9717 1.45588 14.5101C1.92647 12.0054 2.63235 9.69501 3.57353 7.57895C4.55749 5.4197 5.77674 3.62753 7.23128 2.20243C8.68583 0.734143 10.4184 0 12.4291 0C13.1564 0 13.8409 0.259109 14.4826 0.777328C15.1671 1.29555 15.5094 2.11606 15.5094 3.23887V3.75708C15.4666 4.23212 15.3382 4.68556 15.1243 5.11741C14.9104 5.54926 14.6751 5.98111 14.4184 6.41296C14.1618 6.8448 13.9265 7.29825 13.7126 7.77328C13.5414 8.20513 13.4559 8.63698 13.4559 9.06883C13.4559 9.54386 13.6698 9.93252 14.0976 10.2348C14.5254 10.5371 15.0388 10.861 15.6377 11.2065C16.2794 11.552 16.9639 11.9622 17.6912 12.4372C18.4184 12.8691 19.0816 13.4737 19.6805 14.251C20.3222 14.9852 20.857 15.9352 21.2848 17.1012C21.7126 18.224 21.9265 19.6491 21.9265 21.3765C21.9265 25.0904 21.0067 27.7895 19.1671 29.4737C17.3275 31.1579 14.6965 32 11.2741 32C7.72326 32 5.07086 31.1579 3.31684 29.4737C1.60561 27.7895 0.75 25.0904 0.75 21.3765Z" fill="#E6EEFF"/>
</svg>
