<svg width="44" height="58" viewBox="0 0 44 58" fill="none" xmlns="http://www.w3.org/2000/svg">
<path d="M8.79251 47.205C7.9564 47.205 7.2564 46.9222 6.69251 46.3566C6.12807 45.7911 5.84584 45.0902 5.84584 44.2541C5.84584 43.418 6.1289 42.718 6.69501 42.1541C7.26056 41.5897 7.9614 41.3075 8.79751 41.3075C9.63362 41.3075 10.3336 41.5902 10.8975 42.1558C11.4614 42.7214 11.7433 43.4222 11.7433 44.2583C11.7433 45.0944 11.4606 45.7947 10.895 46.3591C10.3295 46.923 9.62862 47.205 8.79251 47.205ZM21.9975 47.205C21.1614 47.205 20.4614 46.9222 19.8975 46.3566C19.3336 45.7911 19.0517 45.0902 19.0517 44.2541C19.0517 43.418 19.3345 42.718 19.9 42.1541C20.4656 41.5897 21.1664 41.3075 22.0025 41.3075C22.8386 41.3075 23.5386 41.5902 24.1025 42.1558C24.6664 42.7214 24.9483 43.4222 24.9483 44.2583C24.9483 45.0944 24.6656 45.7947 24.1 46.3591C23.5345 46.923 22.8336 47.205 21.9975 47.205ZM35.2025 47.205C34.3664 47.205 33.6664 46.9222 33.1025 46.3566C32.5386 45.7911 32.2567 45.0902 32.2567 44.2541C32.2567 43.418 32.5395 42.718 33.105 42.1541C33.6706 41.5897 34.3714 41.3075 35.2075 41.3075C36.0436 41.3075 36.7436 41.5902 37.3075 42.1558C37.872 42.7214 38.1542 43.4222 38.1542 44.2583C38.1542 45.0944 37.8711 45.7947 37.305 46.3591C36.7394 46.923 36.0386 47.205 35.2025 47.205ZM0.333344 34V29C0.333344 23.4316 2.16362 18.6144 5.82418 14.5483C9.48418 10.4822 14.0428 8.14552 19.5 7.5383V0.666626H24.5V7.5383C29.9572 8.14552 34.5158 10.4822 38.1758 14.5483C41.8364 18.6144 43.6667 23.4316 43.6667 29V34H0.333344ZM5.33334 29H38.6667C38.6667 24.3889 37.0417 20.4583 33.7917 17.2083C30.5417 13.9583 26.6111 12.3333 22 12.3333C17.3889 12.3333 13.4583 13.9583 10.2083 17.2083C6.95834 20.4583 5.33334 24.3889 5.33334 29ZM8.79251 57.0766C7.9564 57.0766 7.2564 56.7939 6.69251 56.2283C6.12807 55.6627 5.84584 54.9619 5.84584 54.1258C5.84584 53.2897 6.1289 52.5897 6.69501 52.0258C7.26056 51.4614 7.9614 51.1791 8.79751 51.1791C9.63362 51.1791 10.3336 51.4619 10.8975 52.0275C11.4614 52.593 11.7433 53.2939 11.7433 54.13C11.7433 54.9661 11.4606 55.6664 10.895 56.2308C10.3295 56.7947 9.62862 57.0766 8.79251 57.0766ZM21.9975 57.0766C21.1614 57.0766 20.4614 56.7939 19.8975 56.2283C19.3336 55.6627 19.0517 54.9619 19.0517 54.1258C19.0517 53.2897 19.3345 52.5897 19.9 52.0258C20.4656 51.4614 21.1664 51.1791 22.0025 51.1791C22.8386 51.1791 23.5386 51.4619 24.1025 52.0275C24.6664 52.593 24.9483 53.2939 24.9483 54.13C24.9483 54.9661 24.6656 55.6664 24.1 56.2308C23.5345 56.7947 22.8336 57.0766 21.9975 57.0766ZM35.2025 57.0766C34.3664 57.0766 33.6664 56.7939 33.1025 56.2283C32.5386 55.6627 32.2567 54.9619 32.2567 54.1258C32.2567 53.2897 32.5395 52.5897 33.105 52.0258C33.6706 51.4614 34.3714 51.1791 35.2075 51.1791C36.0436 51.1791 36.7436 51.4619 37.3075 52.0275C37.872 52.593 38.1542 53.2939 38.1542 54.13C38.1542 54.9661 37.8711 55.6664 37.305 56.2308C36.7394 56.7947 36.0386 57.0766 35.2025 57.0766Z" fill="#8B9CC0"/>
</svg>
