<svg width="38" height="38" viewBox="0 0 38 38" fill="none" xmlns="http://www.w3.org/2000/svg">
<path d="M24 35.523L16.1925 27.7155L18.3 25.6075L24 31.3075L35.3385 19.969L37.446 22.077L24 35.523ZM34 16.3845H31V7C31 6.846 30.9358 6.705 30.8075 6.577C30.6795 6.44867 30.5385 6.3845 30.3845 6.3845H26V11.615H8V6.3845H3.6155C3.4615 6.3845 3.3205 6.44867 3.1925 6.577C3.06417 6.705 3 6.846 3 7V33.769C3 33.923 3.06417 34.064 3.1925 34.192C3.3205 34.3203 3.4615 34.3845 3.6155 34.3845H15V37.3845H3.6155C2.61817 37.3845 1.76617 37.0313 1.0595 36.325C0.353167 35.6183 0 34.7663 0 33.769V7C0 6.00267 0.353167 5.15067 1.0595 4.444C1.76617 3.73767 2.61817 3.3845 3.6155 3.3845H12.427C12.704 2.41017 13.27 1.6025 14.125 0.961499C14.98 0.320499 15.9383 0 17 0C18.1027 0 19.0763 0.320499 19.921 0.961499C20.766 1.6025 21.327 2.41017 21.604 3.3845H30.3845C31.3818 3.3845 32.2338 3.73767 32.9405 4.444C33.6468 5.15067 34 6.00267 34 7V16.3845ZM17 6.6155C17.5153 6.6155 17.9455 6.443 18.2905 6.098C18.6352 5.753 18.8075 5.32283 18.8075 4.8075C18.8075 4.29217 18.6352 3.862 18.2905 3.517C17.9455 3.17233 17.5153 3 17 3C16.4847 3 16.0545 3.17233 15.7095 3.517C15.3648 3.862 15.1925 4.29217 15.1925 4.8075C15.1925 5.32283 15.3648 5.753 15.7095 6.098C16.0545 6.443 16.4847 6.6155 17 6.6155Z" fill="#8B9CC0"/>
</svg>
