<svg width="45" height="39" viewBox="0 0 45 39" fill="none" xmlns="http://www.w3.org/2000/svg">
<path d="M44.674 12.4682C44.6222 11.6583 44.4785 10.9667 44.2813 10.3768C44.2763 10.3634 44.2713 10.3484 44.2679 10.3351C44.2562 10.3018 44.2446 10.2701 44.2312 10.2368C43.1183 7.34049 39.7346 6.92221 39.7346 6.92221C36.1219 6.58225 31.032 4.02925 29.2541 2.99771L29.1522 2.94105C22.5267 -0.476843 17.2731 -0.305198 14.023 0.448039C13.6771 0.498033 8.22972 1.35459 4.6655 6.52726C4.6655 6.52726 4.65715 6.54059 4.65548 6.54059L4.62373 6.58559C4.62373 6.58559 4.6137 6.59892 4.61203 6.60225L4.58864 6.63725C2.98449 8.92362 0.912463 13.2231 0.145479 20.7138C-0.576388 27.7595 1.52906 32.0956 3.42229 34.492C5.5528 37.1883 7.91725 38.1365 8.18628 38.2382L8.25312 38.2615C9.67847 38.7515 11.0771 38.9998 12.4122 38.9998C14.79 38.9998 17.0442 38.1982 18.9341 36.6817C21.0846 34.9553 22.0806 32.8622 22.1892 32.6239L22.2209 32.5506C24.3715 27.3779 23.9153 21.9586 20.9025 16.8759C18.7068 13.1714 15.8845 10.9334 15.7659 10.84C15.5888 10.7017 15.3331 10.7317 15.1944 10.9084L12.5827 14.2096C12.444 14.3846 12.474 14.6396 12.6495 14.7779C12.6729 14.7962 14.9337 16.616 16.6348 19.5356C18.7737 23.2051 19.0962 26.918 17.5973 30.5708C17.1946 31.3941 14.9956 35.2419 9.94583 33.5371C9.57654 33.3788 4.16087 30.8741 5.14842 21.2237C5.88533 14.0363 7.91056 10.5217 9.05185 9.0686C9.05853 9.06027 9.06522 9.05194 9.07023 9.0436C9.96588 7.69711 12.0062 6.56059 12.0529 6.53393C12.0563 6.53393 12.058 6.53059 12.0613 6.52893C14.3706 5.20576 19.3535 3.55597 26.7844 7.37215C27.4745 7.7671 32.9587 10.8484 37.9767 11.7366C37.9817 11.7366 37.985 11.7399 37.9917 11.7399C38.6835 11.8916 39.0545 12.2599 39.2516 12.6465C39.5574 13.3714 39.3569 14.1396 39.2483 14.4562C38.7186 15.8794 37.6425 17.8425 35.8629 19.139C33.8894 20.5788 31.4899 20.7621 28.7328 19.6856C28.6325 19.6472 28.5205 19.6489 28.422 19.6922C28.3234 19.7356 28.2448 19.8156 28.2064 19.9155L26.6691 23.8317C26.5872 24.04 26.6908 24.275 26.8997 24.3566C32.4591 26.5264 36.4561 24.9182 38.8306 23.1885C42.8493 20.2605 44.8344 14.9912 44.6707 12.4682H44.674Z" fill="#F1F6FD"/>
</svg>
