<svg width="70" height="70" viewBox="0 0 70 70" fill="none" xmlns="http://www.w3.org/2000/svg">
<path d="M39.3225 62.7084C34.4677 62.7084 30.3321 61.006 26.9157 57.6013C23.4993 54.1966 21.7911 50.0656 21.7911 45.2084V43.6151C17.8536 43.1033 14.5602 41.3477 11.9109 38.3484C9.2616 35.3496 7.93695 31.8029 7.93695 27.7084V10.9375H16.687V8.02087H21.062V18.2292H16.687V15.3125H12.312V27.7084C12.312 30.9167 13.4543 33.6632 15.739 35.948C18.0238 38.2327 20.7703 39.375 23.9786 39.375C27.187 39.375 29.9335 38.2327 32.2182 35.948C34.5029 33.6632 35.6453 30.9167 35.6453 27.7084V15.3125H31.2703V18.2292H26.8953V8.02087H31.2703V10.9375H40.0203V27.7084C40.0203 31.8029 38.6956 35.3496 36.0463 38.3484C33.397 41.3477 30.1036 43.1033 26.1661 43.6151V45.2084C26.1661 48.8542 27.4448 51.9532 30.0023 54.5052C32.5597 57.0573 35.6652 58.3334 39.3188 58.3334C42.9647 58.3334 46.0636 57.0573 48.6157 54.5052C51.1678 51.9532 52.4438 48.8542 52.4438 45.2084V40.4914C50.9106 40.0388 49.6487 39.1573 48.658 37.8467C47.6668 36.5362 47.1712 35.045 47.1712 33.3733C47.1712 31.3015 47.897 29.5403 49.3485 28.0897C50.7996 26.6392 52.5617 25.9139 54.635 25.9139C56.7078 25.9139 58.4687 26.6392 59.9178 28.0897C61.3669 29.5403 62.0914 31.3015 62.0914 33.3733C62.0914 35.045 61.5958 36.5362 60.6047 37.8467C59.614 39.1573 58.352 40.0388 56.8188 40.4914V45.2084C56.8188 50.0656 55.1165 54.1966 51.7117 57.6013C48.307 61.006 44.1773 62.7084 39.3225 62.7084ZM54.6313 36.4584C55.4951 36.4584 56.2253 36.1601 56.8218 35.5637C57.4182 34.9672 57.7164 34.2371 57.7164 33.3733C57.7164 32.5094 57.4182 31.7796 56.8218 31.1836C56.2253 30.5871 55.4951 30.2889 54.6313 30.2889C53.7675 30.2889 53.0374 30.5871 52.4409 31.1836C51.8445 31.7796 51.5462 32.5094 51.5462 33.3733C51.5462 34.2371 51.8445 34.9672 52.4409 35.5637C53.0374 36.1601 53.7675 36.4584 54.6313 36.4584Z" fill="#8B9CC0"/>
</svg>
