<svg width="70" height="70" viewBox="0 0 70 70" fill="none" xmlns="http://www.w3.org/2000/svg">
<path d="M22.6042 64.1667L18.2292 60.8854V48.8542H13.8542C12.6053 48.8542 11.5639 48.4373 10.7297 47.6036C9.89601 46.7695 9.47917 45.728 9.47917 44.4792V21.1458H8.75C8.13021 21.1458 7.6108 20.9361 7.19177 20.5166C6.77226 20.097 6.5625 19.5774 6.5625 18.9576C6.5625 18.3373 6.77226 17.8179 7.19177 17.3994C7.6108 16.9803 8.13021 16.7708 8.75 16.7708H18.2292V10.9375H16.0417C15.4219 10.9375 14.9025 10.7277 14.4834 10.3082C14.0639 9.88872 13.8542 9.36906 13.8542 8.74927C13.8542 8.12899 14.0639 7.60958 14.4834 7.19104C14.9025 6.77201 15.4219 6.5625 16.0417 6.5625H24.7917C25.4115 6.5625 25.9309 6.77226 26.3499 7.19177C26.7694 7.61129 26.9792 8.13094 26.9792 8.75073C26.9792 9.37101 26.7694 9.89042 26.3499 10.309C25.9309 10.728 25.4115 10.9375 24.7917 10.9375H22.6042V16.7708H32.0833C32.7031 16.7708 33.2225 16.9806 33.6416 17.4001C34.0611 17.8196 34.2708 18.3393 34.2708 18.9591C34.2708 19.5793 34.0611 20.0988 33.6416 20.5173C33.2225 20.9363 32.7031 21.1458 32.0833 21.1458H31.3542V44.4792C31.3542 45.728 30.9373 46.7695 30.1036 47.6036C29.2695 48.4373 28.228 48.8542 26.9792 48.8542H22.6042V64.1667ZM13.8542 44.4792H26.9792V38.9266H21.1458C20.6821 38.9266 20.2764 38.7525 19.9289 38.4045C19.5808 38.0569 19.4068 37.6513 19.4068 37.1875C19.4068 36.7238 19.5808 36.3181 19.9289 35.9705C20.2764 35.6225 20.6821 35.4484 21.1458 35.4484H26.9792V30.1766H21.1458C20.6821 30.1766 20.2764 30.0025 19.9289 29.6545C19.5808 29.3069 19.4068 28.9013 19.4068 28.4375C19.4068 27.9738 19.5808 27.5681 19.9289 27.2205C20.2764 26.8725 20.6821 26.6984 21.1458 26.6984H26.9792V21.1458H13.8542V44.4792ZM43.0208 63.4375C41.772 63.4375 40.7305 63.0207 39.8964 62.187C39.0627 61.3528 38.6458 60.3113 38.6458 59.0625V39.375C38.6458 37.9735 38.9168 36.8137 39.4589 35.8954C40.0014 34.9767 40.54 34.1957 41.0747 33.5526C41.5905 32.9284 42.0438 32.4051 42.4346 31.9827C42.8254 31.5598 43.0208 31.1072 43.0208 30.625V28.4375H42.2917C41.6719 28.4375 41.1525 28.2277 40.7334 27.8082C40.3139 27.3887 40.1042 26.8691 40.1042 26.2493C40.1042 25.629 40.3139 25.1096 40.7334 24.691C41.1525 24.272 41.6719 24.0625 42.2917 24.0625H56.875C57.4948 24.0625 58.0142 24.2723 58.4332 24.6918C58.8527 25.1113 59.0625 25.6309 59.0625 26.2507C59.0625 26.871 58.8527 27.3904 58.4332 27.809C58.0142 28.228 57.4948 28.4375 56.875 28.4375H56.1458V30.625C56.1458 31.1072 56.3561 31.5822 56.7766 32.0498C57.1975 32.5169 57.681 33.0628 58.2269 33.6875C58.7616 34.3306 59.2776 35.1094 59.7749 36.0238C60.2722 36.9381 60.5208 38.0518 60.5208 39.3648V59.0625C60.5208 60.3113 60.104 61.3528 59.2703 62.187C58.4361 63.0207 57.3947 63.4375 56.1458 63.4375H43.0208ZM43.0208 41.2818H56.1458V39.375C56.1458 38.5335 55.9271 37.8175 55.4896 37.2269C55.0521 36.6358 54.5473 36.015 53.9751 35.3646C53.4535 34.7759 52.9557 34.1192 52.4818 33.3944C52.0078 32.6701 51.7708 31.7469 51.7708 30.625V28.4375H47.3958V30.625C47.3958 31.7115 47.1649 32.6168 46.7031 33.3411C46.2413 34.0655 45.7523 34.7249 45.236 35.3194C44.6639 35.9703 44.1518 36.5986 43.6997 37.2043C43.2471 37.81 43.0208 38.5335 43.0208 39.375V41.2818ZM43.0208 50.0318H56.1458V44.7599H43.0208V50.0318ZM43.0208 59.0625H56.1458V53.5099H43.0208V59.0625Z" fill="#8B9CC0"/>
</svg>
